<svg width="120" height="40" viewBox="0 0 120 40" fill="none" xmlns="http://www.w3.org/2000/svg">
<g clip-path="url(#clip0_499_1900)">
<path d="M113 0.5H7C3.41015 0.5 0.5 3.41015 0.5 7V33C0.5 36.5899 3.41015 39.5 7 39.5H113C116.59 39.5 119.5 36.5899 119.5 33V7C119.5 3.41015 116.59 0.5 113 0.5Z" stroke="white"/>
<path d="M81.5259 19.2012V21.4922H80.0898V22.9946H81.5259V28.0996C81.5259 29.8428 82.3145 30.54 84.2983 30.54C84.647 30.54 84.979 30.4985 85.2695 30.4487V28.9629C85.0205 28.9878 84.8628 29.0044 84.5889 29.0044C83.7007 29.0044 83.3106 28.5894 83.3106 27.6431V22.9946H85.2695V21.4922H83.3106V19.2012H81.5259Z" fill="white"/>
<path d="M90.3232 30.6646C92.9628 30.6646 94.5815 28.8965 94.5815 25.9663C94.5815 23.0527 92.9545 21.2764 90.3232 21.2764C87.6835 21.2764 86.0566 23.0527 86.0566 25.9663C86.0566 28.8965 87.6752 30.6646 90.3232 30.6646ZM90.3232 29.0791C88.7709 29.0791 87.8994 27.9419 87.8994 25.9663C87.8994 24.0073 88.7709 22.8618 90.3232 22.8618C91.8671 22.8618 92.747 24.0073 92.747 25.9663C92.747 27.9336 91.8671 29.0791 90.3232 29.0791Z" fill="white"/>
<path d="M95.9668 30.4902H97.7515V25.1528C97.7515 23.8828 98.706 23.0278 100.059 23.0278C100.374 23.0278 100.906 23.0859 101.055 23.1358V21.376C100.864 21.3262 100.524 21.3013 100.258 21.3013C99.0796 21.3013 98.0752 21.9487 97.8179 22.8369H97.685V21.4507H95.9668V30.4902Z" fill="white"/>
<path d="M105.486 22.7954C106.806 22.7954 107.669 23.7168 107.711 25.1362H103.145C103.245 23.7251 104.166 22.7954 105.486 22.7954ZM107.703 28.0498C107.371 28.7554 106.632 29.1455 105.553 29.1455C104.125 29.1455 103.204 28.1411 103.145 26.5557V26.4561H109.529V25.8335C109.529 22.9946 108.01 21.2764 105.495 21.2764C102.946 21.2764 101.328 23.1109 101.328 25.9995C101.328 28.8882 102.913 30.6646 105.503 30.6646C107.57 30.6646 109.014 29.6685 109.421 28.0498H107.703Z" fill="white"/>
<path d="M69.8223 27.1518C69.96 29.3715 71.8097 30.7911 74.5628 30.7911C77.5052 30.7911 79.3464 29.3027 79.3464 26.9281C79.3464 25.0611 78.2968 24.0287 75.7501 23.4351L74.3822 23.0995C72.7647 22.721 72.1108 22.2134 72.1108 21.3272C72.1108 20.2087 73.126 19.4774 74.6489 19.4774C76.0943 19.4774 77.0923 20.1915 77.2729 21.3358H79.1485C79.0367 19.2451 77.1955 17.7739 74.6747 17.7739C71.9646 17.7739 70.1578 19.2451 70.1578 21.4563C70.1578 23.2802 71.1817 24.3642 73.4272 24.8891L75.0274 25.2762C76.6707 25.6634 77.3934 26.2312 77.3934 27.1776C77.3934 28.2788 76.2577 29.079 74.7091 29.079C73.0486 29.079 71.8957 28.3305 71.7323 27.1518H69.8223Z" fill="white"/>
<path d="M51.335 21.3013C50.1064 21.3013 49.0439 21.9155 48.4961 22.9448H48.3633V21.4507H46.645V33.4951H48.4297V29.1206H48.5708C49.0439 30.0752 50.0649 30.6397 51.3516 30.6397C53.6343 30.6397 55.0869 28.8384 55.0869 25.9663C55.0869 23.0942 53.6343 21.3013 51.335 21.3013ZM50.8286 29.0376C49.3345 29.0376 48.3965 27.8589 48.3965 25.9746C48.3965 24.082 49.3345 22.9033 50.8369 22.9033C52.3477 22.9033 53.2524 24.0571 53.2524 25.9663C53.2524 27.8838 52.3477 29.0376 50.8286 29.0376Z" fill="white"/>
<path d="M61.3316 21.3013C60.103 21.3013 59.0405 21.9155 58.4927 22.9448H58.3599V21.4507H56.6416V33.4951H58.4263V29.1206H58.5674C59.0405 30.0752 60.0615 30.6397 61.3482 30.6397C63.6309 30.6397 65.0835 28.8384 65.0835 25.9663C65.0835 23.0942 63.6309 21.3013 61.3316 21.3013ZM60.8252 29.0376C59.3311 29.0376 58.3931 27.8589 58.3931 25.9746C58.3931 24.082 59.3311 22.9033 60.8335 22.9033C62.3443 22.9033 63.249 24.0571 63.249 25.9663C63.249 27.8838 62.3443 29.0376 60.8252 29.0376Z" fill="white"/>
<path d="M43.4428 30.49H45.4905L41.008 18.0752H38.9346L34.4521 30.49H36.431L37.5752 27.1949H42.3072L43.4428 30.49ZM39.8724 20.3293H40.0186L41.8168 25.5774H38.0656L39.8724 20.3293Z" fill="white"/>
<path d="M35.6509 8.71094V14.7H37.8133C39.5979 14.7 40.6314 13.6001 40.6314 11.6868C40.6314 9.80249 39.5896 8.71094 37.8133 8.71094H35.6509ZM36.5806 9.55762H37.7095C38.9505 9.55762 39.6851 10.3462 39.6851 11.6992C39.6851 13.073 38.9629 13.8533 37.7095 13.8533H36.5806V9.55762Z" fill="white"/>
<path d="M43.7969 14.7869C45.1167 14.7869 45.926 13.9029 45.926 12.4378C45.926 10.981 45.1126 10.0928 43.7969 10.0928C42.4771 10.0928 41.6636 10.981 41.6636 12.4378C41.6636 13.9029 42.4729 14.7869 43.7969 14.7869ZM43.7969 13.9942C43.0208 13.9942 42.585 13.4256 42.585 12.4378C42.585 11.4583 43.0208 10.8855 43.7969 10.8855C44.5689 10.8855 45.0088 11.4583 45.0088 12.4378C45.0088 13.4214 44.5689 13.9942 43.7969 13.9942Z" fill="white"/>
<path d="M52.8182 10.1802H51.9258L51.1207 13.6292H51.0501L50.1204 10.1802H49.2654L48.3357 13.6292H48.2693L47.46 10.1802H46.5552L47.8003 14.7H48.7176L49.6473 11.3713H49.7178L50.6517 14.7H51.5772L52.8182 10.1802Z" fill="white"/>
<path d="M53.8457 14.6998H54.738V12.056C54.738 11.3504 55.1572 10.9104 55.8171 10.9104C56.4771 10.9104 56.7925 11.2715 56.7925 11.9978V14.6998H57.6848V11.7737C57.6848 10.6988 57.1287 10.0928 56.1201 10.0928C55.4395 10.0928 54.9912 10.3958 54.7712 10.898H54.7048V10.18H53.8457V14.6998Z" fill="white"/>
<path d="M59.0898 14.6998H59.9822V8.41602H59.0898V14.6998Z" fill="white"/>
<path d="M63.3384 14.7869C64.6582 14.7869 65.4675 13.9029 65.4675 12.4378C65.4675 10.981 64.6541 10.0928 63.3384 10.0928C62.0186 10.0928 61.2051 10.981 61.2051 12.4378C61.2051 13.9029 62.0144 14.7869 63.3384 14.7869ZM63.3384 13.9942C62.5623 13.9942 62.1265 13.4256 62.1265 12.4378C62.1265 11.4583 62.5623 10.8855 63.3384 10.8855C64.1104 10.8855 64.5503 11.4583 64.5503 12.4378C64.5503 13.4214 64.1104 13.9942 63.3384 13.9942Z" fill="white"/>
<path d="M68.1265 14.0232C67.6409 14.0232 67.2881 13.7867 67.2881 13.3799C67.2881 12.9815 67.5703 12.7698 68.1929 12.7283L69.2969 12.6578V13.0354C69.2969 13.5957 68.7988 14.0232 68.1265 14.0232ZM67.8982 14.7745C68.4917 14.7745 68.9856 14.5171 69.2554 14.0647H69.3259V14.6998H70.1851V11.6119C70.1851 10.6573 69.5459 10.0928 68.4128 10.0928C67.3877 10.0928 66.6572 10.5909 66.5659 11.367H67.4292C67.5288 11.0474 67.8733 10.8648 68.3713 10.8648C68.9814 10.8648 69.2969 11.1346 69.2969 11.6119V12.002L68.0725 12.0726C66.9976 12.139 66.3916 12.608 66.3916 13.4214C66.3916 14.2474 67.0266 14.7745 67.8982 14.7745Z" fill="white"/>
<path d="M73.2129 14.7745C73.8354 14.7745 74.3625 14.4798 74.6323 13.9859H74.7029V14.6998H75.5579V8.41602H74.6655V10.898H74.5991C74.3542 10.3999 73.8313 10.1053 73.2129 10.1053C72.0715 10.1053 71.3369 11.0101 71.3369 12.4378C71.3369 13.8697 72.0632 14.7745 73.2129 14.7745ZM73.4661 10.9063C74.2131 10.9063 74.6821 11.4998 74.6821 12.4419C74.6821 13.3882 74.2173 13.9734 73.4661 13.9734C72.7107 13.9734 72.2583 13.3965 72.2583 12.4378C72.2583 11.4873 72.7148 10.9063 73.4661 10.9063Z" fill="white"/>
<path d="M81.3442 14.7869C82.6641 14.7869 83.4734 13.9029 83.4734 12.4378C83.4734 10.981 82.6599 10.0928 81.3442 10.0928C80.0244 10.0928 79.2109 10.981 79.2109 12.4378C79.2109 13.9029 80.0203 14.7869 81.3442 14.7869ZM81.3442 13.9942C80.5681 13.9942 80.1323 13.4256 80.1323 12.4378C80.1323 11.4583 80.5681 10.8855 81.3442 10.8855C82.1162 10.8855 82.5561 11.4583 82.5561 12.4378C82.5561 13.4214 82.1162 13.9942 81.3442 13.9942Z" fill="white"/>
<path d="M84.6548 14.6998H85.5471V12.056C85.5471 11.3504 85.9663 10.9104 86.6262 10.9104C87.2861 10.9104 87.6016 11.2715 87.6016 11.9978V14.6998H88.4939V11.7737C88.4939 10.6988 87.9377 10.0928 86.9292 10.0928C86.2485 10.0928 85.8003 10.3958 85.5803 10.898H85.5139V10.18H84.6548V14.6998Z" fill="white"/>
<path d="M92.6037 9.05566V10.2011H91.8857V10.9523H92.6037V13.5048C92.6037 14.3764 92.998 14.7251 93.9899 14.7251C94.1643 14.7251 94.3303 14.7043 94.4755 14.6794V13.9365C94.351 13.9489 94.2722 13.9572 94.1352 13.9572C93.6911 13.9572 93.496 13.7497 93.496 13.2766V10.9523H94.4755V10.2011H93.496V9.05566H92.6037Z" fill="white"/>
<path d="M95.6733 14.6998H96.5657V12.0601C96.5657 11.3753 96.9724 10.9146 97.7029 10.9146C98.3337 10.9146 98.6699 11.2798 98.6699 12.002V14.6998H99.5623V11.782C99.5623 10.7071 98.9688 10.097 98.0059 10.097C97.3252 10.097 96.8479 10.3999 96.6279 10.9063H96.5574V8.41602H95.6733V14.6998Z" fill="white"/>
<path d="M102.781 10.8523C103.441 10.8523 103.873 11.313 103.894 12.0227H101.611C101.661 11.3172 102.121 10.8523 102.781 10.8523ZM103.889 13.4795C103.723 13.8323 103.354 14.0274 102.814 14.0274C102.101 14.0274 101.64 13.5252 101.611 12.7325V12.6827H104.802V12.3714C104.802 10.9519 104.043 10.0928 102.785 10.0928C101.511 10.0928 100.702 11.0101 100.702 12.4544C100.702 13.8987 101.495 14.7869 102.789 14.7869C103.823 14.7869 104.545 14.2889 104.748 13.4795H103.889Z" fill="white"/>
<path d="M24.769 20.3008C24.7907 18.6198 25.6934 17.0292 27.1256 16.1488C26.2221 14.8584 24.7088 14.0403 23.1344 13.9911C21.4552 13.8148 19.8272 14.9959 18.9715 14.9959C18.0992 14.9959 16.7817 14.0086 15.363 14.0378C13.5137 14.0975 11.7898 15.1489 10.8901 16.7656C8.95605 20.1141 10.3987 25.0351 12.2513 27.7417C13.1782 29.0671 14.2615 30.5475 15.6789 30.495C17.066 30.4375 17.584 29.6105 19.2583 29.6105C20.9171 29.6105 21.4031 30.495 22.8493 30.4616C24.3377 30.4375 25.2754 29.1304 26.1698 27.7925C26.8358 26.8481 27.3483 25.8044 27.6882 24.7C25.9391 23.9602 24.771 22.2 24.769 20.3008Z" fill="white"/>
<path d="M22.0372 12.2113C22.8488 11.2371 23.2486 9.98493 23.1517 8.7207C21.9119 8.85092 20.7667 9.44348 19.9442 10.3803C19.1399 11.2956 18.7213 12.5257 18.8005 13.7417C20.0407 13.7544 21.26 13.1779 22.0372 12.2113Z" fill="white"/>
</g>
<defs>
<clipPath id="clip0_499_1900">
<rect width="120" height="40" fill="white"/>
</clipPath>
</defs>
</svg>
