<svg width="135" height="40" viewBox="0 0 135 40" fill="none" xmlns="http://www.w3.org/2000/svg">
<g clip-path="url(#clip0_499_1879)">
<path d="M130 0.5H5C2.51472 0.5 0.5 2.51472 0.5 5V35C0.5 37.4853 2.51472 39.5 5 39.5H130C132.485 39.5 134.5 37.4853 134.5 35V5C134.5 2.51472 132.485 0.5 130 0.5Z" stroke="white"/>
<path d="M68.136 21.7509C65.784 21.7509 63.867 23.5399 63.867 26.0039C63.867 28.4529 65.784 30.2569 68.136 30.2569C70.489 30.2569 72.406 28.4529 72.406 26.0039C72.405 23.5399 70.488 21.7509 68.136 21.7509ZM68.136 28.5829C66.847 28.5829 65.736 27.5199 65.736 26.0049C65.736 24.4739 66.848 23.4269 68.136 23.4269C69.425 23.4269 70.536 24.4739 70.536 26.0049C70.536 27.5189 69.425 28.5829 68.136 28.5829ZM58.822 21.7509C56.47 21.7509 54.553 23.5399 54.553 26.0039C54.553 28.4529 56.47 30.2569 58.822 30.2569C61.175 30.2569 63.092 28.4529 63.092 26.0039C63.092 23.5399 61.175 21.7509 58.822 21.7509ZM58.822 28.5829C57.533 28.5829 56.422 27.5199 56.422 26.0049C56.422 24.4739 57.534 23.4269 58.822 23.4269C60.111 23.4269 61.222 24.4739 61.222 26.0049C61.223 27.5189 60.111 28.5829 58.822 28.5829ZM47.744 23.0569V24.8609H52.062C51.933 25.8759 51.595 26.6169 51.079 27.1319C50.451 27.7599 49.468 28.4529 47.744 28.4529C45.086 28.4529 43.008 26.3099 43.008 23.6519C43.008 20.9939 45.086 18.8509 47.744 18.8509C49.178 18.8509 50.225 19.4149 50.998 20.1399L52.271 18.8669C51.191 17.8359 49.758 17.0469 47.744 17.0469C44.103 17.0469 41.042 20.0109 41.042 23.6519C41.042 27.2929 44.103 30.2569 47.744 30.2569C49.709 30.2569 51.192 29.6119 52.351 28.4039C53.543 27.2119 53.914 25.5359 53.914 24.1829C53.914 23.7649 53.882 23.3779 53.817 23.0559L47.744 23.0569ZM93.052 24.4579C92.698 23.5079 91.618 21.7509 89.411 21.7509C87.22 21.7509 85.399 23.4749 85.399 26.0039C85.399 28.3879 87.204 30.2569 89.62 30.2569C91.569 30.2569 92.697 29.0649 93.165 28.3719L91.715 27.4049C91.232 28.1139 90.571 28.5809 89.62 28.5809C88.67 28.5809 87.993 28.1459 87.558 27.2919L93.245 24.9399L93.052 24.4579ZM87.252 25.8759C87.204 24.2319 88.525 23.3949 89.476 23.3949C90.217 23.3949 90.845 23.7659 91.055 24.2969L87.252 25.8759ZM82.629 29.9999H84.497V17.4989H82.629V29.9999ZM79.567 22.7019H79.503C79.084 22.2019 78.278 21.7509 77.264 21.7509C75.137 21.7509 73.188 23.6199 73.188 26.0209C73.188 28.4049 75.137 30.2579 77.264 30.2579C78.279 30.2579 79.084 29.8069 79.503 29.2919H79.567V29.9039C79.567 31.5309 78.697 32.4009 77.296 32.4009C76.152 32.4009 75.443 31.5799 75.153 30.8869L73.526 31.5639C73.993 32.6909 75.233 34.0769 77.296 34.0769C79.487 34.0769 81.34 32.7879 81.34 29.6459V22.0099H79.568L79.567 22.7019ZM77.425 28.5829C76.136 28.5829 75.057 27.5029 75.057 26.0209C75.057 24.5219 76.136 23.4269 77.425 23.4269C78.697 23.4269 79.696 24.5219 79.696 26.0209C79.696 27.5029 78.697 28.5829 77.425 28.5829ZM101.806 17.4989H97.335V29.9999H99.2V25.2639H101.805C103.873 25.2639 105.907 23.7669 105.907 21.3819C105.907 18.9969 103.874 17.4989 101.806 17.4989ZM101.854 23.5239H99.2V19.2389H101.854C103.249 19.2389 104.041 20.3939 104.041 21.3819C104.041 22.3499 103.249 23.5239 101.854 23.5239ZM113.386 21.7289C112.035 21.7289 110.636 22.3239 110.057 23.6429L111.713 24.3339C112.067 23.6429 112.727 23.4169 113.418 23.4169C114.383 23.4169 115.364 23.9959 115.38 25.0249V25.1539C115.042 24.9609 114.318 24.6719 113.434 24.6719C111.649 24.6719 109.831 25.6529 109.831 27.4859C109.831 29.1589 111.295 30.2359 112.935 30.2359C114.189 30.2359 114.881 29.6729 115.315 29.0129H115.379V29.9779H117.181V25.1849C117.182 22.9669 115.524 21.7289 113.386 21.7289ZM113.16 28.5799C112.55 28.5799 111.697 28.2739 111.697 27.5179C111.697 26.5529 112.759 26.1829 113.676 26.1829C114.495 26.1829 114.882 26.3599 115.38 26.6009C115.235 27.7599 114.238 28.5799 113.16 28.5799ZM123.743 22.0019L121.604 27.4219H121.54L119.32 22.0019H117.31L120.639 29.5769L118.741 33.7909H120.687L125.818 22.0019H123.743ZM106.937 29.9999H108.802V17.4989H106.937V29.9999Z" fill="white"/>
<path d="M47.4179 10.2427C47.4179 11.0807 47.1701 11.7477 46.673 12.2457C46.109 12.8377 45.3731 13.1337 44.4691 13.1337C43.6031 13.1337 42.8661 12.8337 42.2611 12.2337C41.6551 11.6327 41.3521 10.8887 41.3521 10.0007C41.3521 9.1117 41.6551 8.3677 42.2611 7.7677C42.8661 7.1667 43.6031 6.8667 44.4691 6.8667C44.8991 6.8667 45.3101 6.9507 45.7001 7.1177C46.0911 7.2857 46.404 7.5087 46.6381 7.7877L46.111 8.3157C45.714 7.8407 45.1669 7.6037 44.4679 7.6037C43.8359 7.6037 43.2899 7.8257 42.8289 8.2697C42.3679 8.7137 42.1381 9.2907 42.1381 9.9997C42.1381 10.7087 42.3679 11.2857 42.8289 11.7297C43.2899 12.1737 43.8359 12.3957 44.4679 12.3957C45.1379 12.3957 45.6971 12.1727 46.1441 11.7257C46.4341 11.4347 46.6019 11.0297 46.6469 10.5107H44.4679V9.7897H47.375C47.405 9.9467 47.4179 10.0977 47.4179 10.2427Z" fill="white"/>
<path d="M52.0279 7.737H49.2959V9.639H51.7599V10.36H49.2959V12.262H52.0279V13H48.5249V7H52.0279V7.737Z" fill="white"/>
<path d="M55.279 13H54.508V7.737H52.832V7H56.955V7.737H55.279V13Z" fill="white"/>
<path d="M59.938 13V7H60.709V13H59.938Z" fill="white"/>
<path d="M64.1281 13H63.3572V7.737H61.6812V7H65.8042V7.737H64.1281V13Z" fill="white"/>
<path d="M73.6087 12.2252C73.0187 12.8312 72.2857 13.1342 71.4087 13.1342C70.5317 13.1342 69.7987 12.8312 69.2097 12.2252C68.6197 11.6192 68.3257 10.8772 68.3257 10.0002C68.3257 9.12323 68.6197 8.38123 69.2097 7.77523C69.7987 7.16923 70.5317 6.86523 71.4087 6.86523C72.2807 6.86523 73.0127 7.17023 73.6047 7.77923C74.1967 8.38823 74.4927 9.12823 74.4927 10.0002C74.4927 10.8772 74.1977 11.6192 73.6087 12.2252ZM69.7787 11.7222C70.2227 12.1722 70.7657 12.3962 71.4087 12.3962C72.0517 12.3962 72.5957 12.1712 73.0387 11.7222C73.4827 11.2722 73.7057 10.6982 73.7057 10.0002C73.7057 9.30223 73.4827 8.72823 73.0387 8.27823C72.5957 7.82823 72.0517 7.60423 71.4087 7.60423C70.7657 7.60423 70.2227 7.82923 69.7787 8.27823C69.3357 8.72823 69.1127 9.30223 69.1127 10.0002C69.1127 10.6982 69.3357 11.2722 69.7787 11.7222Z" fill="white"/>
<path d="M75.5747 13V7H76.5128L79.4288 11.667H79.4617L79.4288 10.511V7H80.1997V13H79.3947L76.3438 8.106H76.3107L76.3438 9.262V13H75.5747Z" fill="white"/>
<path d="M47.4179 10.2427C47.4179 11.0807 47.1701 11.7477 46.673 12.2457C46.109 12.8377 45.3731 13.1337 44.4691 13.1337C43.6031 13.1337 42.8661 12.8337 42.2611 12.2337C41.6551 11.6327 41.3521 10.8887 41.3521 10.0007C41.3521 9.1117 41.6551 8.3677 42.2611 7.7677C42.8661 7.1667 43.6031 6.8667 44.4691 6.8667C44.8991 6.8667 45.3101 6.9507 45.7001 7.1177C46.0911 7.2857 46.404 7.5087 46.6381 7.7877L46.111 8.3157C45.714 7.8407 45.1669 7.6037 44.4679 7.6037C43.8359 7.6037 43.2899 7.8257 42.8289 8.2697C42.3679 8.7137 42.1381 9.2907 42.1381 9.9997C42.1381 10.7087 42.3679 11.2857 42.8289 11.7297C43.2899 12.1737 43.8359 12.3957 44.4679 12.3957C45.1379 12.3957 45.6971 12.1727 46.1441 11.7257C46.4341 11.4347 46.6019 11.0297 46.6469 10.5107H44.4679V9.7897H47.375C47.405 9.9467 47.4179 10.0977 47.4179 10.2427Z" stroke="white" stroke-width="0.2" stroke-miterlimit="10"/>
<path d="M52.0279 7.737H49.2959V9.639H51.7599V10.36H49.2959V12.262H52.0279V13H48.5249V7H52.0279V7.737Z" stroke="white" stroke-width="0.2" stroke-miterlimit="10"/>
<path d="M55.279 13H54.508V7.737H52.832V7H56.955V7.737H55.279V13Z" stroke="white" stroke-width="0.2" stroke-miterlimit="10"/>
<path d="M59.938 13V7H60.709V13H59.938Z" stroke="white" stroke-width="0.2" stroke-miterlimit="10"/>
<path d="M64.1281 13H63.3572V7.737H61.6812V7H65.8042V7.737H64.1281V13Z" stroke="white" stroke-width="0.2" stroke-miterlimit="10"/>
<path d="M73.6087 12.2252C73.0187 12.8312 72.2857 13.1342 71.4087 13.1342C70.5317 13.1342 69.7987 12.8312 69.2097 12.2252C68.6197 11.6192 68.3257 10.8772 68.3257 10.0002C68.3257 9.12323 68.6197 8.38123 69.2097 7.77523C69.7987 7.16923 70.5317 6.86523 71.4087 6.86523C72.2807 6.86523 73.0127 7.17023 73.6047 7.77923C74.1967 8.38823 74.4927 9.12823 74.4927 10.0002C74.4927 10.8772 74.1977 11.6192 73.6087 12.2252ZM69.7787 11.7222C70.2227 12.1722 70.7657 12.3962 71.4087 12.3962C72.0517 12.3962 72.5957 12.1712 73.0387 11.7222C73.4827 11.2722 73.7057 10.6982 73.7057 10.0002C73.7057 9.30223 73.4827 8.72823 73.0387 8.27823C72.5957 7.82823 72.0517 7.60423 71.4087 7.60423C70.7657 7.60423 70.2227 7.82923 69.7787 8.27823C69.3357 8.72823 69.1127 9.30223 69.1127 10.0002C69.1127 10.6982 69.3357 11.2722 69.7787 11.7222Z" stroke="white" stroke-width="0.2" stroke-miterlimit="10"/>
<path d="M75.5747 13V7H76.5128L79.4288 11.667H79.4617L79.4288 10.511V7H80.1997V13H79.3947L76.3438 8.106H76.3107L76.3438 9.262V13H75.5747Z" stroke="white" stroke-width="0.2" stroke-miterlimit="10"/>
<path fill-rule="evenodd" clip-rule="evenodd" d="M10.1566 7.96617C10.0384 8.23367 9.97314 8.56144 9.97314 8.9427V31.0587C9.97314 31.4408 10.0385 31.7685 10.1567 32.0359L22.1906 20.0003L10.1566 7.96617ZM10.8516 32.7552C11.2977 32.9461 11.8796 32.8856 12.5142 32.5257L26.6713 24.481L22.8977 20.7074L10.8516 32.7552ZM27.5738 23.9692L32.0152 21.4457C33.4122 20.6507 33.4122 19.3517 32.0152 18.5577L27.5716 16.0328L23.6048 20.0002L27.5738 23.9692ZM26.6698 15.5204L12.5142 7.4767C11.8797 7.11613 11.2978 7.05596 10.8517 7.2471L22.8977 19.2931L26.6698 15.5204Z" fill="white"/>
</g>
<defs>
<clipPath id="clip0_499_1879">
<rect width="135" height="40" fill="white"/>
</clipPath>
</defs>
</svg>
