<svg width="32" height="32" viewBox="0 0 32 32" fill="none" xmlns="http://www.w3.org/2000/svg">
<rect width="32" height="32" rx="16" fill="white"/>
<path d="M9.5 11.3939C9.5 10.9899 9.6464 10.6566 9.93919 10.3939C10.232 10.1313 10.6126 10 11.0811 10C11.5412 10 11.9134 10.1293 12.1979 10.3879C12.4907 10.6545 12.6371 11.002 12.6371 11.4303C12.6371 11.8182 12.4949 12.1414 12.2104 12.4C11.9176 12.6667 11.5328 12.8 11.056 12.8H11.0434C10.5833 12.8 10.2111 12.6667 9.92664 12.4C9.64221 12.1333 9.5 11.798 9.5 11.3939ZM9.66313 22V13.903H12.4488V22H9.66313ZM13.9923 22H16.778V17.4788C16.778 17.1959 16.8115 16.9778 16.8784 16.8242C16.9955 16.5495 17.1733 16.3172 17.4117 16.1273C17.6501 15.9374 17.9492 15.8424 18.3089 15.8424C19.2458 15.8424 19.7143 16.4525 19.7143 17.6727V22H22.5V17.3576C22.5 16.1616 22.2072 15.2546 21.6216 14.6364C21.036 14.0182 20.2622 13.7091 19.3002 13.7091C18.221 13.7091 17.3803 14.1576 16.778 15.0546V15.0788H16.7654L16.778 15.0546V13.903H13.9923C14.009 14.1616 14.0174 14.9656 14.0174 16.3151C14.0174 17.6646 14.009 19.5596 13.9923 22Z" fill="#2E80CE"/>
</svg>
