<svg width="86" height="35" viewBox="0 0 86 35" fill="none" xmlns="http://www.w3.org/2000/svg">
<g clip-path="url(#clip0_499_1672)">
<g clip-path="url(#clip1_499_1672)">
<path d="M15 31C23.2843 31 30 24.2843 30 16C30 7.71573 23.2843 1 15 1C6.71573 1 0 7.71573 0 16C0 24.2843 6.71573 31 15 31Z" fill="#2E80CE"/>
<path d="M19 28C23.4183 28 27 24.4183 27 20C27 15.5817 23.4183 12 19 12C14.5817 12 11 15.5817 11 20C11 24.4183 14.5817 28 19 28Z" fill="white"/>
<path d="M41.1498 14.288C39.8418 14.288 38.8218 14.012 38.0898 13.46C37.3698 12.908 36.9918 12.146 36.9558 11.174H38.8998C38.9238 11.534 39.1098 11.864 39.4578 12.164C39.8058 12.464 40.3758 12.614 41.1678 12.614C41.8398 12.614 42.3678 12.482 42.7518 12.218C43.1358 11.954 43.3278 11.624 43.3278 11.228C43.3278 10.868 43.1838 10.586 42.8958 10.382C42.6198 10.166 42.1458 10.022 41.4738 9.95L40.5198 9.86C39.5238 9.752 38.7318 9.458 38.1438 8.978C37.5678 8.498 37.2798 7.85 37.2798 7.034C37.2798 6.386 37.4418 5.84 37.7658 5.396C38.0898 4.952 38.5338 4.61 39.0978 4.37C39.6738 4.13 40.3338 4.01 41.0778 4.01C42.2298 4.01 43.1598 4.268 43.8678 4.784C44.5758 5.288 44.9418 6.032 44.9658 7.016H43.0398C43.0158 6.644 42.8418 6.332 42.5178 6.08C42.1938 5.828 41.7138 5.702 41.0778 5.702C40.4778 5.702 40.0158 5.822 39.6918 6.062C39.3798 6.302 39.2238 6.608 39.2238 6.98C39.2238 7.316 39.3438 7.58 39.5838 7.772C39.8238 7.964 40.2138 8.09 40.7538 8.15L41.7078 8.24C42.7998 8.36 43.6638 8.666 44.2998 9.158C44.9478 9.638 45.2718 10.31 45.2718 11.174C45.2718 11.798 45.0978 12.344 44.7498 12.812C44.4018 13.28 43.9158 13.646 43.2918 13.91C42.6798 14.162 41.9658 14.288 41.1498 14.288ZM47.5752 14V0.860001H49.6812V8.618H49.2492C49.2492 7.658 49.3692 6.836 49.6092 6.152C49.8612 5.456 50.2392 4.928 50.7432 4.568C51.2592 4.196 51.9072 4.01 52.6872 4.01H52.7772C53.9172 4.01 54.7752 4.394 55.3512 5.162C55.9392 5.93 56.2332 7.034 56.2332 8.474V14H54.1272V8.168C54.1272 7.472 53.9232 6.926 53.5152 6.53C53.1192 6.122 52.6032 5.918 51.9672 5.918C51.2832 5.918 50.7312 6.146 50.3112 6.602C49.8912 7.058 49.6812 7.658 49.6812 8.402V14H47.5752ZM59.6272 14V4.298H61.7332V14H59.6272ZM58.2052 5.918V4.298H61.7332V5.918H58.2052ZM60.3112 2.948C59.8792 2.948 59.5552 2.834 59.3392 2.606C59.1352 2.378 59.0332 2.084 59.0332 1.724C59.0332 1.376 59.1352 1.088 59.3392 0.860001C59.5552 0.62 59.8792 0.5 60.3112 0.5C60.7552 0.5 61.0792 0.62 61.2832 0.860001C61.4992 1.088 61.6072 1.376 61.6072 1.724C61.6072 2.084 61.4992 2.378 61.2832 2.606C61.0792 2.834 60.7552 2.948 60.3112 2.948ZM64.8721 14V4.298H66.5461V8.456H66.3481C66.3481 7.496 66.4741 6.686 66.7261 6.026C66.9901 5.366 67.3861 4.868 67.9141 4.532C68.4421 4.184 69.0961 4.01 69.8761 4.01H69.9661C71.1661 4.01 72.0601 4.388 72.6481 5.144C73.2361 5.9 73.5301 7.004 73.5301 8.456V14H71.4241V8.168C71.4241 7.496 71.2321 6.956 70.8481 6.548C70.4641 6.128 69.9361 5.918 69.2641 5.918C68.5801 5.918 68.0281 6.134 67.6081 6.566C67.1881 6.986 66.9781 7.55 66.9781 8.258V14H64.8721ZM80.6861 14.324C79.8461 14.324 79.1141 14.18 78.4901 13.892C77.8661 13.604 77.3561 13.226 76.9601 12.758C76.5641 12.278 76.2641 11.744 76.0601 11.156C75.8681 10.556 75.7721 9.944 75.7721 9.32V8.978C75.7721 8.342 75.8681 7.73 76.0601 7.142C76.2641 6.542 76.5641 6.008 76.9601 5.54C77.3561 5.06 77.8541 4.682 78.4541 4.406C79.0661 4.118 79.7741 3.974 80.5781 3.974C81.6221 3.974 82.4921 4.202 83.1881 4.658C83.8841 5.114 84.4061 5.708 84.7541 6.44C85.1021 7.16 85.2761 7.94 85.2761 8.78V9.626H76.6721V8.204H83.8541L83.2781 8.924C83.2781 8.276 83.1761 7.718 82.9721 7.25C82.7681 6.77 82.4681 6.404 82.0721 6.152C81.6761 5.888 81.1781 5.756 80.5781 5.756C79.9541 5.756 79.4321 5.9 79.0121 6.188C78.5921 6.476 78.2801 6.872 78.0761 7.376C77.8721 7.88 77.7701 8.474 77.7701 9.158C77.7701 9.806 77.8721 10.388 78.0761 10.904C78.2801 11.408 78.5981 11.81 79.0301 12.11C79.4621 12.398 80.0141 12.542 80.6861 12.542C81.3581 12.542 81.9101 12.398 82.3421 12.11C82.7741 11.81 83.0381 11.462 83.1341 11.066H85.0961C84.9641 11.726 84.6941 12.302 84.2861 12.794C83.8901 13.286 83.3861 13.664 82.7741 13.928C82.1621 14.192 81.4661 14.324 80.6861 14.324ZM57.082 28.18C56.266 28.18 55.638 28.004 55.198 27.652C54.758 27.292 54.534 26.812 54.526 26.212H55.366C55.382 26.516 55.518 26.792 55.774 27.04C56.038 27.288 56.474 27.412 57.082 27.412C57.65 27.412 58.074 27.296 58.354 27.064C58.642 26.824 58.786 26.536 58.786 26.2C58.786 25.888 58.666 25.648 58.426 25.48C58.194 25.304 57.854 25.192 57.406 25.144L56.686 25.072C56.11 25.008 55.642 24.832 55.282 24.544C54.93 24.248 54.754 23.844 54.754 23.332C54.754 22.956 54.85 22.628 55.042 22.348C55.234 22.068 55.502 21.852 55.846 21.7C56.198 21.54 56.61 21.46 57.082 21.46C57.762 21.46 58.314 21.62 58.738 21.94C59.17 22.26 59.39 22.716 59.398 23.308H58.558C58.55 23.004 58.422 22.748 58.174 22.54C57.926 22.332 57.562 22.228 57.082 22.228C56.586 22.228 56.214 22.336 55.966 22.552C55.726 22.768 55.606 23.032 55.606 23.344C55.606 23.608 55.698 23.828 55.882 24.004C56.066 24.172 56.354 24.276 56.746 24.316L57.466 24.388C58.106 24.46 58.626 24.644 59.026 24.94C59.434 25.236 59.638 25.66 59.638 26.212C59.638 26.588 59.53 26.928 59.314 27.232C59.106 27.528 58.81 27.76 58.426 27.928C58.042 28.096 57.594 28.18 57.082 28.18ZM61.4295 28V21.64H62.1495V24.316H62.0055C62.0055 23.732 62.0855 23.228 62.2455 22.804C62.4135 22.38 62.6615 22.052 62.9895 21.82C63.3175 21.58 63.7335 21.46 64.2375 21.46H64.2735C64.7775 21.46 65.1935 21.576 65.5215 21.808C65.8495 22.04 66.0935 22.368 66.2535 22.792C66.4135 23.216 66.4935 23.724 66.4935 24.316H66.2055C66.2055 23.732 66.2855 23.228 66.4455 22.804C66.6135 22.38 66.8615 22.052 67.1895 21.82C67.5255 21.58 67.9455 21.46 68.4495 21.46H68.4855C68.9895 21.46 69.4055 21.576 69.7335 21.808C70.0695 22.04 70.3175 22.368 70.4775 22.792C70.6455 23.216 70.7295 23.724 70.7295 24.316V28H69.8295V24.112C69.8295 23.552 69.6935 23.108 69.4215 22.78C69.1495 22.452 68.7575 22.288 68.2455 22.288C67.7175 22.288 67.2975 22.46 66.9855 22.804C66.6815 23.14 66.5295 23.596 66.5295 24.172V28H65.6295V24.112C65.6295 23.552 65.4935 23.108 65.2215 22.78C64.9495 22.452 64.5575 22.288 64.0455 22.288C63.5175 22.288 63.0975 22.46 62.7855 22.804C62.4815 23.14 62.3295 23.596 62.3295 24.172V28H61.4295ZM73.3085 28V21.652H74.1965V28H73.3085ZM72.2885 22.372V21.652H74.1965V22.372H72.2885ZM73.5005 20.476C73.2845 20.476 73.1205 20.42 73.0085 20.308C72.9045 20.188 72.8525 20.04 72.8525 19.864C72.8525 19.688 72.9045 19.544 73.0085 19.432C73.1205 19.312 73.2845 19.252 73.5005 19.252C73.7165 19.252 73.8765 19.312 73.9805 19.432C74.0845 19.544 74.1365 19.688 74.1365 19.864C74.1365 20.04 74.0845 20.188 73.9805 20.308C73.8765 20.42 73.7165 20.476 73.5005 20.476ZM76.6184 28V19.24H77.5184V28H76.6184ZM75.6944 19.972V19.24H77.5184V19.972H75.6944ZM82.5034 28.204C81.9594 28.204 81.4874 28.112 81.0874 27.928C80.6874 27.736 80.3594 27.484 80.1034 27.172C79.8474 26.852 79.6554 26.496 79.5274 26.104C79.4074 25.712 79.3474 25.308 79.3474 24.892V24.724C79.3474 24.316 79.4074 23.916 79.5274 23.524C79.6554 23.132 79.8474 22.78 80.1034 22.468C80.3594 22.156 80.6794 21.908 81.0634 21.724C81.4554 21.532 81.9114 21.436 82.4314 21.436C83.0954 21.436 83.6474 21.584 84.0874 21.88C84.5354 22.176 84.8714 22.556 85.0954 23.02C85.3194 23.476 85.4314 23.968 85.4314 24.496V24.964H79.7554V24.268H84.8074L84.5794 24.616C84.5794 24.144 84.4954 23.732 84.3274 23.38C84.1674 23.02 83.9274 22.74 83.6074 22.54C83.2954 22.332 82.9034 22.228 82.4314 22.228C81.9354 22.228 81.5234 22.344 81.1954 22.576C80.8674 22.808 80.6194 23.116 80.4514 23.5C80.2914 23.884 80.2114 24.32 80.2114 24.808C80.2114 25.288 80.2914 25.728 80.4514 26.128C80.6194 26.52 80.8714 26.832 81.2074 27.064C81.5514 27.296 81.9834 27.412 82.5034 27.412C83.0554 27.412 83.5034 27.288 83.8474 27.04C84.1914 26.784 84.4034 26.484 84.4834 26.14H85.3234C85.2434 26.564 85.0754 26.932 84.8194 27.244C84.5634 27.548 84.2394 27.784 83.8474 27.952C83.4554 28.12 83.0074 28.204 82.5034 28.204Z" fill="white"/>
</g>
</g>
<defs>
<clipPath id="clip0_499_1672">
<rect width="86" height="32" fill="white"/>
</clipPath>
<clipPath id="clip1_499_1672">
<rect width="86" height="32" fill="white"/>
</clipPath>
</defs>
</svg>
