<svg width="72" height="72" viewBox="0 0 72 72" fill="none" xmlns="http://www.w3.org/2000/svg">
<g clip-path="url(#clip0_499_1785)">
<g clip-path="url(#clip1_499_1785)">
<path d="M50.625 64.1251C53.4068 64.1267 56.12 63.2616 58.3875 61.6501L66.9375 70.2001C67.1309 70.458 67.3775 70.6713 67.6605 70.8256C67.9436 70.9799 68.2564 71.0716 68.578 71.0945C68.8995 71.1173 69.2223 71.0708 69.5243 70.9581C69.8263 70.8454 70.1005 70.6691 70.3285 70.4411C70.5564 70.2132 70.7327 69.9389 70.8455 69.6369C70.9582 69.3349 71.0047 69.0122 70.9818 68.6906C70.959 68.3691 70.8673 68.0562 70.713 67.7732C70.5587 67.4901 70.3454 67.2436 70.0875 67.0501L61.5375 58.5001C63.3058 56.0379 64.1939 53.0521 64.0589 50.0237C63.9238 46.9953 62.7734 44.1005 60.7929 41.8054C58.8124 39.5104 56.1171 37.9487 53.1411 37.3719C50.165 36.7951 47.0814 37.2367 44.3869 38.6256C41.6924 40.0145 39.5437 42.2699 38.287 45.0286C37.0303 47.7873 36.7386 50.8886 37.459 53.8332C38.1793 56.7778 39.8698 59.3943 42.2581 61.2612C44.6464 63.1282 47.5936 64.137 50.625 64.1251ZM50.625 41.6251C52.405 41.6251 54.1451 42.153 55.6251 43.1419C57.1052 44.1308 58.2587 45.5365 58.9399 47.181C59.6211 48.8255 59.7993 50.6351 59.4521 52.3809C59.1048 54.1268 58.2476 55.7304 56.989 56.9891C55.7303 58.2478 54.1266 59.1049 52.3808 59.4522C50.635 59.7995 48.8254 59.6212 47.1809 58.9401C45.5363 58.2589 44.1307 57.1053 43.1418 55.6253C42.1528 54.1452 41.625 52.4052 41.625 50.6251C41.625 48.2382 42.5732 45.949 44.261 44.2612C45.9489 42.5733 48.2381 41.6251 50.625 41.6251Z" fill="#10375C"/>
<path d="M32.625 50.625C32.6059 47.1092 33.6233 43.6658 35.55 40.725C35.3719 40.1039 35.2959 39.458 35.325 38.8125V37.125C37.6217 35.0066 39.2617 32.2733 40.05 29.25C42.8625 29.25 43.425 23.5125 43.425 22.725C43.425 21.9375 43.5375 18.45 40.725 18.45C46.8 3.93747 30.825 -3.71252 18.9 4.61248C13.95 4.61248 13.6125 11.25 15.4125 18.45C12.6 18.45 12.7125 21.825 12.7125 22.725C12.7125 23.625 13.3875 29.25 16.0875 29.25C16.8817 32.2708 18.5208 35.0026 20.8125 37.125V38.925C20.8125 40.725 20.8125 43.425 11.7 45.225C2.5875 47.025 1.125 55.125 1.125 55.125H33.1875C32.8098 53.6549 32.6208 52.1428 32.625 50.625Z" fill="#10375C"/>
</g>
</g>
<defs>
<clipPath id="clip0_499_1785">
<rect width="72" height="72" fill="white"/>
</clipPath>
<clipPath id="clip1_499_1785">
<rect width="72" height="72" fill="white"/>
</clipPath>
</defs>
</svg>
